# xmcd CD database file
#
# Track frame offsets:
#	150
#	36245
#	80475
#	108550
#	148689
#	158427
#	176627
#	207079
#	239235
#
# Disc length: 3437 seconds
#
# Revision: 0
# Processed by: cddbd v1.5.2PL0 Copyright (c) Steve Scherf et al.
# Submitted via: CDex 1.70beta2
#
DISCID=7a0d6b09
DTITLE=Croomp - On the Loose
DYEAR=2008
DGENRE=Jazz
TTITLE0=Frühstück mit Pinguin
TTITLE1=Stuttered state of mind
TTITLE2=Ephescopeology
TTITLE3=Amoebas Lovesong
TTITLE4=Zebra im Neuschnee
TTITLE5=Farpoint Station
TTITLE6=Into the trees
TTITLE7=Neulich hinterm Sternenhaufen
TTITLE8=Zebra im Schnee
EXTD=YEAR: 2008
EXTT0=
EXTT1=
EXTT2=
EXTT3=
EXTT4=
EXTT5=
EXTT6=
EXTT7=
EXTT8=
PLAYORDER=
